<svg xmlns="http://www.w3.org/2000/svg" width="14" height="14" viewBox="0 0 14 14"><g fill="none" fill-rule="evenodd" clip-rule="evenodd"><path fill="#8fbffa" d="M7 .25c-1.523 0-3.013.08-4.44.23A2.326 2.326 0 0 0 .485 2.452a23.4 23.4 0 0 0-.01 6.54c.159 1.141 1.116 1.952 2.217 2.055l.218.02l.225.02v2.164a.5.5 0 0 0 .704.456c1.405-.63 2.255-1.242 3.28-2.39a43 43 0 0 0 4.256-.234a2.386 2.386 0 0 0 2.131-2.033a23 23 0 0 0 .244-3.266c0-1.13-.087-2.238-.239-3.301a2.354 2.354 0 0 0-2.101-2A43 43 0 0 0 7 .25"/><path fill="#2859c5" d="M6.127 4.273a.888.888 0 0 1 1.044-.856c.333.066.62.353.686.686a.52.52 0 0 1-.034.358c-.05.097-.149.212-.337.338c-.255.17-.522.353-.719.557c-.22.23-.391.526-.391.915a.625.625 0 0 0 1.25.003a.4.4 0 0 1 .043-.052c.086-.09.235-.199.511-.383c.305-.204.582-.467.757-.811c.18-.356.23-.752.146-1.169a2.15 2.15 0 0 0-1.668-1.668c-1.3-.258-2.538.758-2.538 2.082a.625.625 0 1 0 1.25 0M7.625 8.56a.625.625 0 1 0-1.25 0v.275a.625.625 0 1 0 1.25 0z"/></g></svg>