<svg xmlns="http://www.w3.org/2000/svg" width="24" height="24" viewBox="0 0 24 24">
	<path fill="none" stroke="currentColor" stroke-linecap="round" stroke-linejoin="round" stroke-width="2" d="M11.235 2.374c-.368.152-.697.482-1.356 1.14c-.659.66-.989.989-1.14 1.356a2 2 0 0 0 0 1.531c.151.368.48.697 1.14 1.356c.658.659.988.989 1.356 1.14a2 2 0 0 0 1.53 0c.368-.151.697-.48 1.356-1.14s.988-.988 1.14-1.356a2 2 0 0 0 0-1.53c-.152-.368-.48-.697-1.14-1.356s-.988-.989-1.356-1.141a2 2 0 0 0-1.53 0M4.87 8.738c-.367.152-.697.481-1.355 1.14c-.66.66-.989.989-1.141 1.356a2 2 0 0 0 0 1.531c.152.368.482.697 1.14 1.356c.66.659.989.988 1.356 1.14a2 2 0 0 0 1.531 0c.368-.152.697-.481 1.356-1.14s.988-.988 1.14-1.356a2 2 0 0 0 0-1.53c-.152-.368-.48-.698-1.14-1.357s-.988-.988-1.356-1.14a2 2 0 0 0-1.53 0m11.372 1.14c-.659.66-.988.989-1.14 1.356a2 2 0 0 0 0 1.531c.152.368.481.697 1.14 1.356s.989.988 1.356 1.14a2 2 0 0 0 1.53 0c.368-.152.698-.481 1.357-1.14s.987-.988 1.14-1.356a2 2 0 0 0 0-1.53c-.153-.368-.481-.698-1.14-1.357c-.66-.659-.989-.988-1.356-1.14a2 2 0 0 0-1.531 0c-.367.152-.697.481-1.356 1.14m-5.008 5.224c-.368.152-.697.482-1.356 1.14c-.659.66-.989.989-1.14 1.357a2 2 0 0 0 0 1.53c.151.368.48.697 1.14 1.356c.658.659.988.989 1.356 1.14a2 2 0 0 0 1.53 0c.368-.151.697-.48 1.356-1.14s.988-.988 1.14-1.356c.203-.49.203-1.04 0-1.53c-.152-.368-.48-.698-1.14-1.356c-.659-.66-.988-.989-1.356-1.141a2 2 0 0 0-1.53 0" />
</svg>