<svg xmlns="http://www.w3.org/2000/svg" width="24" height="24" viewBox="0 0 24 24">
	<path fill="#fff" d="M8 15c.55 0 1 .45 1 1s-.45 1-1 1s-1-.45-1-1s.45-1 1-1m7.07-10.31L16.5 6.1l-1.43 1.4l-1.41-1.4zM17.9 7.5l1.41 1.43l-1.41 1.41l-1.4-1.41zM8 13c-1.66 0-3 1.34-3 3s1.34 3 3 3s3-1.34 3-3s-1.34-3-3-3m1.77-8.67l.73.75l3.79-3.79c.18-.18.43-.29.71-.29s.53.11.71.29l7.07 7.07v.01a1.02 1.02 0 0 1-.12 1.39l-3.73 3.74l.74.73l-6.72 6.72A6.98 6.98 0 0 1 8 23c-3.87 0-7-3.13-7-7c0-1.93.78-3.68 2.05-4.95zM20.59 9L15 3.41L11.93 6.5l5.57 5.58z" />
</svg>