<svg xmlns="http://www.w3.org/2000/svg" width="20" height="20" viewBox="0 0 20 20"><path fill="#5642ee" d="M14.608 12.172c0 .84.239 1.175.864 1.175c1.393 0 2.28-1.775 2.28-4.727c0-4.512-3.288-6.672-7.393-6.672c-4.223 0-8.064 2.832-8.064 8.184c0 5.112 3.36 7.896 8.52 7.896c1.752 0 2.928-.192 4.727-.792l.386 1.607c-1.776.577-3.674.744-5.137.744c-6.768 0-10.393-3.72-10.393-9.456c0-5.784 4.201-9.72 9.985-9.72c6.024 0 9.215 3.6 9.215 8.016c0 3.744-1.175 6.6-4.871 6.6c-1.681 0-2.784-.672-2.928-2.161c-.432 1.656-1.584 2.161-3.145 2.161c-2.088 0-3.84-1.609-3.84-4.848c0-3.264 1.537-5.28 4.297-5.28c1.464 0 2.376.576 2.782 1.488l.697-1.272h2.016v7.057zm-2.951-3.168c0-1.319-.985-1.872-1.801-1.872c-.888 0-1.871.719-1.871 2.832c0 1.68.744 2.616 1.871 2.616c.792 0 1.801-.504 1.801-1.896z"/></svg>