<svg xmlns="http://www.w3.org/2000/svg" width="24" height="24" viewBox="0 0 24 24">
	<path fill="currentColor" d="M12.079 2.25c-4.794 0-8.734 3.663-9.118 8.333H2a.75.75 0 0 0-.528 1.283l1.68 1.666a.75.75 0 0 0 1.056 0l1.68-1.666a.75.75 0 0 0-.528-1.283h-.893c.38-3.831 3.638-6.833 7.612-6.833a7.66 7.66 0 0 1 6.537 3.643a.75.75 0 1 0 1.277-.786A9.16 9.16 0 0 0 12.08 2.25" />
	<path fill="currentColor" d="M20.841 10.467a.75.75 0 0 0-1.054 0L18.1 12.133a.75.75 0 0 0 .527 1.284h.899c-.381 3.83-3.651 6.833-7.644 6.833a7.7 7.7 0 0 1-6.565-3.644a.75.75 0 1 0-1.276.788a9.2 9.2 0 0 0 7.84 4.356c4.809 0 8.766-3.66 9.151-8.333H22a.75.75 0 0 0 .527-1.284z" opacity="0.5" />
</svg>