<svg xmlns="http://www.w3.org/2000/svg" width="24" height="24" viewBox="0 0 24 24">
	<path fill="currentColor" d="M7.424 2.83A1.25 1.25 0 0 1 8.602 2h6.453a1.25 1.25 0 0 1 1.186 1.645L14.79 8h3.958c1.104 0 1.666 1.327.898 2.12l-.67.692a1.73 1.73 0 0 0-1.311-.803l.493-.509h-4.41a.75.75 0 0 1-.71-.987l1.67-5.013h-5.93l-3.262 9.157a.25.25 0 0 0 .234.333l2.502.01a.75.75 0 0 1 .729.914l-1.473 6.578l7.858-8.11l-1.437 3.638l-5.344 5.516c-1.054 1.088-2.872.106-2.541-1.372l1.27-5.668l-1.57-.006a1.75 1.75 0 0 1-1.641-2.337zm10.77 8.645l3.75 9.495a.75.75 0 0 1-1.351.643l-.044-.092l-.998-2.525h-4.11l-.996 2.525a.75.75 0 0 1-.876.453l-.097-.03a.75.75 0 0 1-.453-.876l.03-.098l3.75-9.495a.73.73 0 0 1 .45-.434a.77.77 0 0 1 .546.02c.14.058.264.162.349.309zm-2.161 6.021h2.926l-1.463-3.705z" />
</svg>