<svg xmlns="http://www.w3.org/2000/svg" width="24" height="24" viewBox="0 0 24 24"><path fill="#f00" d="M19.83 10.441L18.296 12l-.11.11l-.09-.088c-.49-.87-1.446-1.827-2.869-3.25c-1.408-1.407-2.359-2.359-3.221-2.853l1.687-1.714C15.139 2.735 15.863 2 16.76 2c.9 0 1.623.735 3.069 2.205C21.277 5.675 22 6.41 22 7.323s-.724 1.648-2.17 3.118" opacity="0.5"/><path fill="#f00" fill-rule="evenodd" d="M2 14.142c0 1.348 1.085 2.433 3.255 4.603S8.509 22 9.857 22s2.434-1.085 4.603-3.255l.767-.767c2.17-2.17 3.255-3.255 3.255-4.603s-1.085-2.433-3.255-4.603s-3.254-3.254-4.602-3.254s-2.433 1.084-4.603 3.254l-.767.767C3.085 11.71 2 12.794 2 14.142m3.785-.53a.75.75 0 0 0-1.06 1.06l4.602 4.604a.75.75 0 1 0 1.061-1.06zm13.462-6.739a.75.75 0 0 1 0 1.06l-.707.708a.75.75 0 1 1-1.06-1.06l.706-.708a.75.75 0 0 1 1.061 0m-2.121-2.121a.75.75 0 0 1 0 1.06l-.707.708a.75.75 0 1 1-1.06-1.06l.706-.708a.75.75 0 0 1 1.061 0" clip-rule="evenodd"/></svg>